<svg width="154" height="154" viewBox="0 0 154 154" fill="none" xmlns="http://www.w3.org/2000/svg">
<path d="M102.664 128.334V25.6673C102.664 22.2637 101.312 18.9995 98.9056 16.5928C96.4989 14.1861 93.2347 12.834 89.8311 12.834H64.1644C60.7608 12.834 57.4966 14.1861 55.0899 16.5928C52.6831 18.9995 51.3311 22.2637 51.3311 25.6673V128.334" stroke="white" stroke-width="12.8333" stroke-linecap="round" stroke-linejoin="round"/>
<path d="M128.331 38.5H25.6644C18.5767 38.5 12.8311 44.2457 12.8311 51.3333V115.5C12.8311 122.588 18.5767 128.333 25.6644 128.333H128.331C135.419 128.333 141.164 122.588 141.164 115.5V51.3333C141.164 44.2457 135.419 38.5 128.331 38.5Z" stroke="white" stroke-width="12.8333" stroke-linecap="round" stroke-linejoin="round"/>
</svg>
